<mxfile host="app.diagrams.net" modified="2021-09-18T10:16:55.695Z" agent="5.0 (Macintosh; Intel Mac OS X 10_15_6) AppleWebKit/537.36 (KHTML, like Gecko) Chrome/93.0.4577.63 Safari/537.36" etag="6U5TwJUFsqqbrMVEh51h" version="15.2.1" type="github">
  <diagram id="C5RBs43oDa-KdzZeNtuy" name="Page-1">
    <mxGraphModel dx="2253" dy="749" grid="0" gridSize="10" guides="1" tooltips="1" connect="1" arrows="1" fold="1" page="1" pageScale="1" pageWidth="827" pageHeight="1169" math="0" shadow="0">
      <root>
        <mxCell id="WIyWlLk6GJQsqaUBKTNV-0" />
        <mxCell id="WIyWlLk6GJQsqaUBKTNV-1" parent="WIyWlLk6GJQsqaUBKTNV-0" />
        <mxCell id="WIyWlLk6GJQsqaUBKTNV-2" value="" style="rounded=0;html=1;jettySize=auto;orthogonalLoop=1;fontSize=11;endArrow=block;endFill=0;endSize=8;strokeWidth=1;shadow=0;labelBackgroundColor=none;edgeStyle=orthogonalEdgeStyle;entryX=0;entryY=0.5;entryDx=0;entryDy=0;" parent="WIyWlLk6GJQsqaUBKTNV-1" source="WIyWlLk6GJQsqaUBKTNV-3" target="DeKQThP0z9D1mcQqg2c3-67" edge="1">
          <mxGeometry relative="1" as="geometry">
            <mxPoint x="94" y="196" as="targetPoint" />
            <Array as="points" />
          </mxGeometry>
        </mxCell>
        <mxCell id="DeKQThP0z9D1mcQqg2c3-6" value="login" style="edgeLabel;html=1;align=center;verticalAlign=middle;resizable=0;points=[];" vertex="1" connectable="0" parent="WIyWlLk6GJQsqaUBKTNV-2">
          <mxGeometry x="-0.0857" y="-3" relative="1" as="geometry">
            <mxPoint as="offset" />
          </mxGeometry>
        </mxCell>
        <mxCell id="WIyWlLk6GJQsqaUBKTNV-3" value="client owner" style="rounded=1;whiteSpace=wrap;html=1;fontSize=12;glass=0;strokeWidth=1;shadow=0;" parent="WIyWlLk6GJQsqaUBKTNV-1" vertex="1">
          <mxGeometry x="34" y="81" width="120" height="40" as="geometry" />
        </mxCell>
        <mxCell id="DeKQThP0z9D1mcQqg2c3-25" value="" style="edgeStyle=orthogonalEdgeStyle;rounded=0;orthogonalLoop=1;jettySize=auto;html=1;" edge="1" parent="WIyWlLk6GJQsqaUBKTNV-1" source="DeKQThP0z9D1mcQqg2c3-5" target="DeKQThP0z9D1mcQqg2c3-24">
          <mxGeometry relative="1" as="geometry" />
        </mxCell>
        <mxCell id="DeKQThP0z9D1mcQqg2c3-26" value="存在&lt;br&gt;项目" style="edgeLabel;html=1;align=center;verticalAlign=middle;resizable=0;points=[];" vertex="1" connectable="0" parent="DeKQThP0z9D1mcQqg2c3-25">
          <mxGeometry x="-0.4545" relative="1" as="geometry">
            <mxPoint as="offset" />
          </mxGeometry>
        </mxCell>
        <mxCell id="DeKQThP0z9D1mcQqg2c3-28" value="" style="edgeStyle=orthogonalEdgeStyle;rounded=0;orthogonalLoop=1;jettySize=auto;html=1;" edge="1" parent="WIyWlLk6GJQsqaUBKTNV-1" source="DeKQThP0z9D1mcQqg2c3-5" target="DeKQThP0z9D1mcQqg2c3-27">
          <mxGeometry relative="1" as="geometry" />
        </mxCell>
        <mxCell id="DeKQThP0z9D1mcQqg2c3-30" value="不存在项目" style="edgeLabel;html=1;align=center;verticalAlign=middle;resizable=0;points=[];" vertex="1" connectable="0" parent="DeKQThP0z9D1mcQqg2c3-28">
          <mxGeometry x="-0.3023" y="2" relative="1" as="geometry">
            <mxPoint as="offset" />
          </mxGeometry>
        </mxCell>
        <mxCell id="DeKQThP0z9D1mcQqg2c3-5" value="模糊搜索&lt;br&gt;查找项目" style="rhombus;whiteSpace=wrap;html=1;shadow=0;fontFamily=Helvetica;fontSize=12;align=center;strokeWidth=1;spacing=6;spacingTop=-4;" vertex="1" parent="WIyWlLk6GJQsqaUBKTNV-1">
          <mxGeometry x="546" y="63" width="100" height="80" as="geometry" />
        </mxCell>
        <mxCell id="DeKQThP0z9D1mcQqg2c3-24" value="录入项目 &lt;br&gt;&amp;amp; &lt;br&gt;创建身份密钥" style="whiteSpace=wrap;html=1;shadow=0;strokeWidth=1;spacing=6;spacingTop=-4;" vertex="1" parent="WIyWlLk6GJQsqaUBKTNV-1">
          <mxGeometry x="711.5" y="73" width="120" height="60" as="geometry" />
        </mxCell>
        <mxCell id="DeKQThP0z9D1mcQqg2c3-29" style="edgeStyle=orthogonalEdgeStyle;rounded=0;orthogonalLoop=1;jettySize=auto;html=1;entryX=0.5;entryY=1;entryDx=0;entryDy=0;" edge="1" parent="WIyWlLk6GJQsqaUBKTNV-1" source="DeKQThP0z9D1mcQqg2c3-27" target="DeKQThP0z9D1mcQqg2c3-24">
          <mxGeometry relative="1" as="geometry">
            <Array as="points">
              <mxPoint x="772" y="201" />
            </Array>
          </mxGeometry>
        </mxCell>
        <mxCell id="DeKQThP0z9D1mcQqg2c3-27" value="手动添加项目" style="whiteSpace=wrap;html=1;shadow=0;strokeWidth=1;spacing=6;spacingTop=-4;" vertex="1" parent="WIyWlLk6GJQsqaUBKTNV-1">
          <mxGeometry x="551.5" y="187" width="89" height="40" as="geometry" />
        </mxCell>
        <mxCell id="DeKQThP0z9D1mcQqg2c3-306" style="edgeStyle=orthogonalEdgeStyle;rounded=0;orthogonalLoop=1;jettySize=auto;html=1;entryX=0;entryY=0.5;entryDx=0;entryDy=0;" edge="1" parent="WIyWlLk6GJQsqaUBKTNV-1" source="DeKQThP0z9D1mcQqg2c3-67" target="DeKQThP0z9D1mcQqg2c3-73">
          <mxGeometry relative="1" as="geometry" />
        </mxCell>
        <mxCell id="DeKQThP0z9D1mcQqg2c3-67" value="&lt;span&gt;auth center&lt;/span&gt;" style="whiteSpace=wrap;html=1;shadow=0;strokeWidth=1;spacing=6;spacingTop=-4;" vertex="1" parent="WIyWlLk6GJQsqaUBKTNV-1">
          <mxGeometry x="244" y="81" width="109" height="44" as="geometry" />
        </mxCell>
        <mxCell id="DeKQThP0z9D1mcQqg2c3-75" style="edgeStyle=orthogonalEdgeStyle;rounded=0;orthogonalLoop=1;jettySize=auto;html=1;" edge="1" parent="WIyWlLk6GJQsqaUBKTNV-1" source="DeKQThP0z9D1mcQqg2c3-73" target="DeKQThP0z9D1mcQqg2c3-5">
          <mxGeometry relative="1" as="geometry" />
        </mxCell>
        <mxCell id="DeKQThP0z9D1mcQqg2c3-73" value="进入项目列表" style="whiteSpace=wrap;html=1;shadow=0;strokeWidth=1;spacing=6;spacingTop=-4;" vertex="1" parent="WIyWlLk6GJQsqaUBKTNV-1">
          <mxGeometry x="397" y="84" width="111" height="38" as="geometry" />
        </mxCell>
        <mxCell id="DeKQThP0z9D1mcQqg2c3-84" value="" style="rounded=0;html=1;jettySize=auto;orthogonalLoop=1;fontSize=11;endArrow=block;endFill=0;endSize=8;strokeWidth=1;shadow=0;labelBackgroundColor=none;edgeStyle=orthogonalEdgeStyle;entryX=0.5;entryY=0;entryDx=0;entryDy=0;" edge="1" parent="WIyWlLk6GJQsqaUBKTNV-1" source="DeKQThP0z9D1mcQqg2c3-86" target="DeKQThP0z9D1mcQqg2c3-126">
          <mxGeometry relative="1" as="geometry">
            <mxPoint x="332" y="1327" as="targetPoint" />
            <Array as="points" />
          </mxGeometry>
        </mxCell>
        <mxCell id="DeKQThP0z9D1mcQqg2c3-85" value="login" style="edgeLabel;html=1;align=center;verticalAlign=middle;resizable=0;points=[];" vertex="1" connectable="0" parent="DeKQThP0z9D1mcQqg2c3-84">
          <mxGeometry x="-0.0857" y="-3" relative="1" as="geometry">
            <mxPoint as="offset" />
          </mxGeometry>
        </mxCell>
        <mxCell id="DeKQThP0z9D1mcQqg2c3-86" value="server owner" style="rounded=1;whiteSpace=wrap;html=1;fontSize=12;glass=0;strokeWidth=1;shadow=0;" vertex="1" parent="WIyWlLk6GJQsqaUBKTNV-1">
          <mxGeometry x="272" y="1212" width="120" height="40" as="geometry" />
        </mxCell>
        <mxCell id="DeKQThP0z9D1mcQqg2c3-92" value="" style="edgeStyle=orthogonalEdgeStyle;rounded=0;orthogonalLoop=1;jettySize=auto;html=1;" edge="1" parent="WIyWlLk6GJQsqaUBKTNV-1" source="DeKQThP0z9D1mcQqg2c3-96" target="DeKQThP0z9D1mcQqg2c3-103">
          <mxGeometry relative="1" as="geometry" />
        </mxCell>
        <mxCell id="DeKQThP0z9D1mcQqg2c3-93" value="Y" style="edgeLabel;html=1;align=center;verticalAlign=middle;resizable=0;points=[];" vertex="1" connectable="0" parent="DeKQThP0z9D1mcQqg2c3-92">
          <mxGeometry x="-0.4545" relative="1" as="geometry">
            <mxPoint as="offset" />
          </mxGeometry>
        </mxCell>
        <mxCell id="DeKQThP0z9D1mcQqg2c3-94" value="" style="edgeStyle=orthogonalEdgeStyle;rounded=0;orthogonalLoop=1;jettySize=auto;html=1;" edge="1" parent="WIyWlLk6GJQsqaUBKTNV-1" source="DeKQThP0z9D1mcQqg2c3-96" target="DeKQThP0z9D1mcQqg2c3-105">
          <mxGeometry relative="1" as="geometry" />
        </mxCell>
        <mxCell id="DeKQThP0z9D1mcQqg2c3-95" value="N" style="edgeLabel;html=1;align=center;verticalAlign=middle;resizable=0;points=[];" vertex="1" connectable="0" parent="DeKQThP0z9D1mcQqg2c3-94">
          <mxGeometry x="-0.3023" y="2" relative="1" as="geometry">
            <mxPoint as="offset" />
          </mxGeometry>
        </mxCell>
        <mxCell id="DeKQThP0z9D1mcQqg2c3-96" value="模糊搜索&lt;br&gt;查找项目" style="rhombus;whiteSpace=wrap;html=1;shadow=0;fontFamily=Helvetica;fontSize=12;align=center;strokeWidth=1;spacing=6;spacingTop=-4;" vertex="1" parent="WIyWlLk6GJQsqaUBKTNV-1">
          <mxGeometry x="182" y="1504" width="100" height="80" as="geometry" />
        </mxCell>
        <mxCell id="DeKQThP0z9D1mcQqg2c3-98" style="edgeStyle=orthogonalEdgeStyle;rounded=0;orthogonalLoop=1;jettySize=auto;html=1;exitX=0.5;exitY=1;exitDx=0;exitDy=0;entryX=0.5;entryY=0;entryDx=0;entryDy=0;" edge="1" parent="WIyWlLk6GJQsqaUBKTNV-1" source="DeKQThP0z9D1mcQqg2c3-102" target="DeKQThP0z9D1mcQqg2c3-107">
          <mxGeometry relative="1" as="geometry">
            <mxPoint x="458" y="1561" as="targetPoint" />
          </mxGeometry>
        </mxCell>
        <mxCell id="DeKQThP0z9D1mcQqg2c3-131" value="存在" style="edgeLabel;html=1;align=center;verticalAlign=middle;resizable=0;points=[];" vertex="1" connectable="0" parent="DeKQThP0z9D1mcQqg2c3-98">
          <mxGeometry x="0.0168" y="1" relative="1" as="geometry">
            <mxPoint as="offset" />
          </mxGeometry>
        </mxCell>
        <mxCell id="DeKQThP0z9D1mcQqg2c3-133" style="edgeStyle=orthogonalEdgeStyle;rounded=0;orthogonalLoop=1;jettySize=auto;html=1;exitX=0;exitY=0.5;exitDx=0;exitDy=0;entryX=0;entryY=0.5;entryDx=0;entryDy=0;" edge="1" parent="WIyWlLk6GJQsqaUBKTNV-1" source="DeKQThP0z9D1mcQqg2c3-102" target="DeKQThP0z9D1mcQqg2c3-128">
          <mxGeometry relative="1" as="geometry">
            <Array as="points">
              <mxPoint x="365.5" y="1487" />
              <mxPoint x="365.5" y="1408" />
            </Array>
          </mxGeometry>
        </mxCell>
        <mxCell id="DeKQThP0z9D1mcQqg2c3-134" value="不存在" style="edgeLabel;html=1;align=center;verticalAlign=middle;resizable=0;points=[];" vertex="1" connectable="0" parent="DeKQThP0z9D1mcQqg2c3-133">
          <mxGeometry x="0.0525" y="-3" relative="1" as="geometry">
            <mxPoint as="offset" />
          </mxGeometry>
        </mxCell>
        <mxCell id="DeKQThP0z9D1mcQqg2c3-102" value="选取需要添&lt;br&gt;加的项目" style="rhombus;whiteSpace=wrap;html=1;shadow=0;fontFamily=Helvetica;fontSize=12;align=center;strokeWidth=1;spacing=6;spacingTop=-4;" vertex="1" parent="WIyWlLk6GJQsqaUBKTNV-1">
          <mxGeometry x="408" y="1447" width="100" height="80" as="geometry" />
        </mxCell>
        <mxCell id="DeKQThP0z9D1mcQqg2c3-103" value="录入项目 &lt;br&gt;&amp;amp; &lt;br&gt;创建身份密钥" style="whiteSpace=wrap;html=1;shadow=0;strokeWidth=1;spacing=6;spacingTop=-4;" vertex="1" parent="WIyWlLk6GJQsqaUBKTNV-1">
          <mxGeometry x="172" y="1620" width="120" height="60" as="geometry" />
        </mxCell>
        <mxCell id="DeKQThP0z9D1mcQqg2c3-104" style="edgeStyle=orthogonalEdgeStyle;rounded=0;orthogonalLoop=1;jettySize=auto;html=1;entryX=0;entryY=0.5;entryDx=0;entryDy=0;" edge="1" parent="WIyWlLk6GJQsqaUBKTNV-1" source="DeKQThP0z9D1mcQqg2c3-105" target="DeKQThP0z9D1mcQqg2c3-103">
          <mxGeometry relative="1" as="geometry">
            <Array as="points">
              <mxPoint x="101" y="1650" />
            </Array>
          </mxGeometry>
        </mxCell>
        <mxCell id="DeKQThP0z9D1mcQqg2c3-105" value="手动添加项目" style="whiteSpace=wrap;html=1;shadow=0;strokeWidth=1;spacing=6;spacingTop=-4;" vertex="1" parent="WIyWlLk6GJQsqaUBKTNV-1">
          <mxGeometry x="50" y="1524" width="89" height="40" as="geometry" />
        </mxCell>
        <mxCell id="DeKQThP0z9D1mcQqg2c3-132" style="edgeStyle=orthogonalEdgeStyle;rounded=0;orthogonalLoop=1;jettySize=auto;html=1;entryX=0.5;entryY=0;entryDx=0;entryDy=0;" edge="1" parent="WIyWlLk6GJQsqaUBKTNV-1" source="DeKQThP0z9D1mcQqg2c3-107" target="DeKQThP0z9D1mcQqg2c3-118">
          <mxGeometry relative="1" as="geometry" />
        </mxCell>
        <mxCell id="DeKQThP0z9D1mcQqg2c3-107" value="设置参数" style="whiteSpace=wrap;html=1;shadow=0;strokeWidth=1;spacing=6;spacingTop=-4;" vertex="1" parent="WIyWlLk6GJQsqaUBKTNV-1">
          <mxGeometry x="397.5" y="1573" width="121" height="43" as="geometry" />
        </mxCell>
        <mxCell id="DeKQThP0z9D1mcQqg2c3-118" value="添加成功" style="whiteSpace=wrap;html=1;shadow=0;strokeWidth=1;spacing=6;spacingTop=-4;" vertex="1" parent="WIyWlLk6GJQsqaUBKTNV-1">
          <mxGeometry x="398.5" y="1665" width="120" height="42" as="geometry" />
        </mxCell>
        <mxCell id="DeKQThP0z9D1mcQqg2c3-124" value="" style="edgeStyle=orthogonalEdgeStyle;rounded=0;orthogonalLoop=1;jettySize=auto;html=1;" edge="1" parent="WIyWlLk6GJQsqaUBKTNV-1" source="DeKQThP0z9D1mcQqg2c3-126" target="DeKQThP0z9D1mcQqg2c3-128">
          <mxGeometry relative="1" as="geometry" />
        </mxCell>
        <mxCell id="DeKQThP0z9D1mcQqg2c3-125" value="" style="edgeStyle=orthogonalEdgeStyle;rounded=0;orthogonalLoop=1;jettySize=auto;html=1;" edge="1" parent="WIyWlLk6GJQsqaUBKTNV-1" source="DeKQThP0z9D1mcQqg2c3-126" target="DeKQThP0z9D1mcQqg2c3-130">
          <mxGeometry relative="1" as="geometry">
            <Array as="points">
              <mxPoint x="232" y="1345" />
            </Array>
          </mxGeometry>
        </mxCell>
        <mxCell id="DeKQThP0z9D1mcQqg2c3-136" value="" style="edgeStyle=orthogonalEdgeStyle;rounded=0;orthogonalLoop=1;jettySize=auto;html=1;" edge="1" parent="WIyWlLk6GJQsqaUBKTNV-1" source="DeKQThP0z9D1mcQqg2c3-126" target="DeKQThP0z9D1mcQqg2c3-135">
          <mxGeometry relative="1" as="geometry" />
        </mxCell>
        <mxCell id="DeKQThP0z9D1mcQqg2c3-126" value="&lt;span&gt;auth center&lt;/span&gt;" style="whiteSpace=wrap;html=1;shadow=0;strokeWidth=1;spacing=6;spacingTop=-4;" vertex="1" parent="WIyWlLk6GJQsqaUBKTNV-1">
          <mxGeometry x="277.5" y="1323" width="109" height="44" as="geometry" />
        </mxCell>
        <mxCell id="DeKQThP0z9D1mcQqg2c3-127" style="edgeStyle=orthogonalEdgeStyle;rounded=0;orthogonalLoop=1;jettySize=auto;html=1;exitX=0.5;exitY=1;exitDx=0;exitDy=0;entryX=0.5;entryY=0;entryDx=0;entryDy=0;" edge="1" parent="WIyWlLk6GJQsqaUBKTNV-1" source="DeKQThP0z9D1mcQqg2c3-128" target="DeKQThP0z9D1mcQqg2c3-102">
          <mxGeometry relative="1" as="geometry" />
        </mxCell>
        <mxCell id="DeKQThP0z9D1mcQqg2c3-128" value="添加资源" style="whiteSpace=wrap;html=1;shadow=0;strokeWidth=1;spacing=6;spacingTop=-4;" vertex="1" parent="WIyWlLk6GJQsqaUBKTNV-1">
          <mxGeometry x="406.5" y="1389" width="98.5" height="37" as="geometry" />
        </mxCell>
        <mxCell id="DeKQThP0z9D1mcQqg2c3-129" style="edgeStyle=orthogonalEdgeStyle;rounded=0;orthogonalLoop=1;jettySize=auto;html=1;" edge="1" parent="WIyWlLk6GJQsqaUBKTNV-1" source="DeKQThP0z9D1mcQqg2c3-130" target="DeKQThP0z9D1mcQqg2c3-96">
          <mxGeometry relative="1" as="geometry" />
        </mxCell>
        <mxCell id="DeKQThP0z9D1mcQqg2c3-130" value="进入项目列表" style="whiteSpace=wrap;html=1;shadow=0;strokeWidth=1;spacing=6;spacingTop=-4;" vertex="1" parent="WIyWlLk6GJQsqaUBKTNV-1">
          <mxGeometry x="176" y="1434" width="111" height="38" as="geometry" />
        </mxCell>
        <mxCell id="DeKQThP0z9D1mcQqg2c3-143" style="edgeStyle=orthogonalEdgeStyle;rounded=0;orthogonalLoop=1;jettySize=auto;html=1;" edge="1" parent="WIyWlLk6GJQsqaUBKTNV-1" source="DeKQThP0z9D1mcQqg2c3-135" target="DeKQThP0z9D1mcQqg2c3-139">
          <mxGeometry relative="1" as="geometry" />
        </mxCell>
        <mxCell id="DeKQThP0z9D1mcQqg2c3-135" value="处理待审批" style="whiteSpace=wrap;html=1;shadow=0;strokeWidth=1;spacing=6;spacingTop=-4;" vertex="1" parent="WIyWlLk6GJQsqaUBKTNV-1">
          <mxGeometry x="619" y="1324" width="91" height="43" as="geometry" />
        </mxCell>
        <mxCell id="DeKQThP0z9D1mcQqg2c3-145" value="" style="edgeStyle=orthogonalEdgeStyle;rounded=0;orthogonalLoop=1;jettySize=auto;html=1;" edge="1" parent="WIyWlLk6GJQsqaUBKTNV-1" source="DeKQThP0z9D1mcQqg2c3-139" target="DeKQThP0z9D1mcQqg2c3-144">
          <mxGeometry relative="1" as="geometry" />
        </mxCell>
        <mxCell id="DeKQThP0z9D1mcQqg2c3-139" value="选取申请单&lt;br&gt;&amp;amp;&lt;br&gt;输入审批说明" style="whiteSpace=wrap;html=1;shadow=0;strokeWidth=1;spacing=6;spacingTop=-4;" vertex="1" parent="WIyWlLk6GJQsqaUBKTNV-1">
          <mxGeometry x="614.38" y="1426" width="100.25" height="51" as="geometry" />
        </mxCell>
        <mxCell id="DeKQThP0z9D1mcQqg2c3-144" value="处理成功" style="whiteSpace=wrap;html=1;shadow=0;strokeWidth=1;spacing=6;spacingTop=-4;" vertex="1" parent="WIyWlLk6GJQsqaUBKTNV-1">
          <mxGeometry x="619" y="1544" width="92.5" height="36.5" as="geometry" />
        </mxCell>
        <mxCell id="DeKQThP0z9D1mcQqg2c3-195" value="" style="edgeStyle=orthogonalEdgeStyle;rounded=0;orthogonalLoop=1;jettySize=auto;html=1;" edge="1" parent="WIyWlLk6GJQsqaUBKTNV-1" source="DeKQThP0z9D1mcQqg2c3-146" target="DeKQThP0z9D1mcQqg2c3-194">
          <mxGeometry relative="1" as="geometry" />
        </mxCell>
        <mxCell id="DeKQThP0z9D1mcQqg2c3-146" value="client服务" style="rounded=1;whiteSpace=wrap;html=1;fontSize=12;glass=0;strokeWidth=1;shadow=0;" vertex="1" parent="WIyWlLk6GJQsqaUBKTNV-1">
          <mxGeometry x="107" y="2380.5" width="120" height="40" as="geometry" />
        </mxCell>
        <mxCell id="DeKQThP0z9D1mcQqg2c3-166" value="" style="edgeStyle=orthogonalEdgeStyle;rounded=0;orthogonalLoop=1;jettySize=auto;html=1;" edge="1" parent="WIyWlLk6GJQsqaUBKTNV-1" source="DeKQThP0z9D1mcQqg2c3-153" target="DeKQThP0z9D1mcQqg2c3-165">
          <mxGeometry relative="1" as="geometry" />
        </mxCell>
        <mxCell id="DeKQThP0z9D1mcQqg2c3-153" value="auth center" style="rounded=0;whiteSpace=wrap;html=1;" vertex="1" parent="WIyWlLk6GJQsqaUBKTNV-1">
          <mxGeometry x="409" y="2559.5" width="86" height="43" as="geometry" />
        </mxCell>
        <mxCell id="DeKQThP0z9D1mcQqg2c3-172" value="" style="edgeStyle=orthogonalEdgeStyle;rounded=0;orthogonalLoop=1;jettySize=auto;html=1;" edge="1" parent="WIyWlLk6GJQsqaUBKTNV-1" source="DeKQThP0z9D1mcQqg2c3-165" target="DeKQThP0z9D1mcQqg2c3-171">
          <mxGeometry relative="1" as="geometry" />
        </mxCell>
        <mxCell id="DeKQThP0z9D1mcQqg2c3-178" value="Y" style="edgeLabel;html=1;align=center;verticalAlign=middle;resizable=0;points=[];" vertex="1" connectable="0" parent="DeKQThP0z9D1mcQqg2c3-172">
          <mxGeometry x="-0.617" y="-1" relative="1" as="geometry">
            <mxPoint as="offset" />
          </mxGeometry>
        </mxCell>
        <mxCell id="DeKQThP0z9D1mcQqg2c3-176" value="" style="edgeStyle=orthogonalEdgeStyle;rounded=0;orthogonalLoop=1;jettySize=auto;html=1;" edge="1" parent="WIyWlLk6GJQsqaUBKTNV-1" source="DeKQThP0z9D1mcQqg2c3-165" target="DeKQThP0z9D1mcQqg2c3-175">
          <mxGeometry relative="1" as="geometry" />
        </mxCell>
        <mxCell id="DeKQThP0z9D1mcQqg2c3-179" value="N" style="edgeLabel;html=1;align=center;verticalAlign=middle;resizable=0;points=[];" vertex="1" connectable="0" parent="DeKQThP0z9D1mcQqg2c3-176">
          <mxGeometry x="-0.271" y="-4" relative="1" as="geometry">
            <mxPoint x="1" as="offset" />
          </mxGeometry>
        </mxCell>
        <mxCell id="DeKQThP0z9D1mcQqg2c3-165" value="验签" style="rhombus;whiteSpace=wrap;html=1;rounded=0;" vertex="1" parent="WIyWlLk6GJQsqaUBKTNV-1">
          <mxGeometry x="420.5" y="2642" width="63" height="56" as="geometry" />
        </mxCell>
        <mxCell id="DeKQThP0z9D1mcQqg2c3-185" value="" style="edgeStyle=orthogonalEdgeStyle;rounded=0;orthogonalLoop=1;jettySize=auto;html=1;" edge="1" parent="WIyWlLk6GJQsqaUBKTNV-1" source="DeKQThP0z9D1mcQqg2c3-169" target="DeKQThP0z9D1mcQqg2c3-184">
          <mxGeometry relative="1" as="geometry" />
        </mxCell>
        <mxCell id="DeKQThP0z9D1mcQqg2c3-169" value="生成token信息" style="whiteSpace=wrap;html=1;rounded=0;" vertex="1" parent="WIyWlLk6GJQsqaUBKTNV-1">
          <mxGeometry x="403" y="2826.5" width="98" height="46" as="geometry" />
        </mxCell>
        <mxCell id="DeKQThP0z9D1mcQqg2c3-177" style="edgeStyle=orthogonalEdgeStyle;rounded=0;orthogonalLoop=1;jettySize=auto;html=1;entryX=0.5;entryY=1;entryDx=0;entryDy=0;" edge="1" parent="WIyWlLk6GJQsqaUBKTNV-1" source="DeKQThP0z9D1mcQqg2c3-171" target="DeKQThP0z9D1mcQqg2c3-175">
          <mxGeometry relative="1" as="geometry" />
        </mxCell>
        <mxCell id="DeKQThP0z9D1mcQqg2c3-180" value="N" style="edgeLabel;html=1;align=center;verticalAlign=middle;resizable=0;points=[];" vertex="1" connectable="0" parent="DeKQThP0z9D1mcQqg2c3-177">
          <mxGeometry x="-0.5208" y="-1" relative="1" as="geometry">
            <mxPoint as="offset" />
          </mxGeometry>
        </mxCell>
        <mxCell id="DeKQThP0z9D1mcQqg2c3-183" style="edgeStyle=orthogonalEdgeStyle;rounded=0;orthogonalLoop=1;jettySize=auto;html=1;exitX=0.5;exitY=1;exitDx=0;exitDy=0;entryX=0.5;entryY=0;entryDx=0;entryDy=0;" edge="1" parent="WIyWlLk6GJQsqaUBKTNV-1" source="DeKQThP0z9D1mcQqg2c3-171" target="DeKQThP0z9D1mcQqg2c3-169">
          <mxGeometry relative="1" as="geometry" />
        </mxCell>
        <mxCell id="DeKQThP0z9D1mcQqg2c3-171" value="身份密钥&lt;br&gt;匹配" style="rhombus;whiteSpace=wrap;html=1;rounded=0;" vertex="1" parent="WIyWlLk6GJQsqaUBKTNV-1">
          <mxGeometry x="417.5" y="2731" width="69" height="62" as="geometry" />
        </mxCell>
        <mxCell id="DeKQThP0z9D1mcQqg2c3-175" value="响应请求失败" style="whiteSpace=wrap;html=1;rounded=0;" vertex="1" parent="WIyWlLk6GJQsqaUBKTNV-1">
          <mxGeometry x="231" y="2653" width="83" height="35.5" as="geometry" />
        </mxCell>
        <mxCell id="DeKQThP0z9D1mcQqg2c3-184" value="响应成功请求" style="whiteSpace=wrap;html=1;rounded=0;" vertex="1" parent="WIyWlLk6GJQsqaUBKTNV-1">
          <mxGeometry x="401.5" y="2906.5" width="99.5" height="38" as="geometry" />
        </mxCell>
        <mxCell id="DeKQThP0z9D1mcQqg2c3-207" style="edgeStyle=orthogonalEdgeStyle;rounded=0;orthogonalLoop=1;jettySize=auto;html=1;exitX=1;exitY=0.5;exitDx=0;exitDy=0;entryX=0;entryY=0.5;entryDx=0;entryDy=0;" edge="1" parent="WIyWlLk6GJQsqaUBKTNV-1" source="DeKQThP0z9D1mcQqg2c3-193" target="DeKQThP0z9D1mcQqg2c3-205">
          <mxGeometry relative="1" as="geometry" />
        </mxCell>
        <mxCell id="DeKQThP0z9D1mcQqg2c3-209" value="过期" style="edgeLabel;html=1;align=center;verticalAlign=middle;resizable=0;points=[];" vertex="1" connectable="0" parent="DeKQThP0z9D1mcQqg2c3-207">
          <mxGeometry x="-0.1889" y="-1" relative="1" as="geometry">
            <mxPoint as="offset" />
          </mxGeometry>
        </mxCell>
        <mxCell id="DeKQThP0z9D1mcQqg2c3-210" style="edgeStyle=orthogonalEdgeStyle;rounded=0;orthogonalLoop=1;jettySize=auto;html=1;entryX=0;entryY=0.5;entryDx=0;entryDy=0;" edge="1" parent="WIyWlLk6GJQsqaUBKTNV-1" source="DeKQThP0z9D1mcQqg2c3-193" target="DeKQThP0z9D1mcQqg2c3-194">
          <mxGeometry relative="1" as="geometry">
            <Array as="points">
              <mxPoint x="246" y="2507" />
              <mxPoint x="246" y="2401" />
            </Array>
          </mxGeometry>
        </mxCell>
        <mxCell id="DeKQThP0z9D1mcQqg2c3-211" value="未过期" style="edgeLabel;html=1;align=center;verticalAlign=middle;resizable=0;points=[];" vertex="1" connectable="0" parent="DeKQThP0z9D1mcQqg2c3-210">
          <mxGeometry x="-0.0574" relative="1" as="geometry">
            <mxPoint as="offset" />
          </mxGeometry>
        </mxCell>
        <mxCell id="DeKQThP0z9D1mcQqg2c3-193" value="token&lt;br&gt;是否过期" style="rhombus;whiteSpace=wrap;html=1;rounded=0;" vertex="1" parent="WIyWlLk6GJQsqaUBKTNV-1">
          <mxGeometry x="276" y="2475.5" width="72" height="63" as="geometry" />
        </mxCell>
        <mxCell id="DeKQThP0z9D1mcQqg2c3-197" style="edgeStyle=orthogonalEdgeStyle;rounded=0;orthogonalLoop=1;jettySize=auto;html=1;entryX=0;entryY=0.5;entryDx=0;entryDy=0;" edge="1" parent="WIyWlLk6GJQsqaUBKTNV-1" source="DeKQThP0z9D1mcQqg2c3-194" target="DeKQThP0z9D1mcQqg2c3-196">
          <mxGeometry relative="1" as="geometry" />
        </mxCell>
        <mxCell id="DeKQThP0z9D1mcQqg2c3-198" value="N" style="edgeLabel;html=1;align=center;verticalAlign=middle;resizable=0;points=[];" vertex="1" connectable="0" parent="DeKQThP0z9D1mcQqg2c3-197">
          <mxGeometry x="-0.0196" y="1" relative="1" as="geometry">
            <mxPoint as="offset" />
          </mxGeometry>
        </mxCell>
        <mxCell id="DeKQThP0z9D1mcQqg2c3-201" style="edgeStyle=orthogonalEdgeStyle;rounded=0;orthogonalLoop=1;jettySize=auto;html=1;entryX=0.5;entryY=0;entryDx=0;entryDy=0;" edge="1" parent="WIyWlLk6GJQsqaUBKTNV-1" source="DeKQThP0z9D1mcQqg2c3-194" target="DeKQThP0z9D1mcQqg2c3-193">
          <mxGeometry relative="1" as="geometry" />
        </mxCell>
        <mxCell id="DeKQThP0z9D1mcQqg2c3-202" value="Y" style="edgeLabel;html=1;align=center;verticalAlign=middle;resizable=0;points=[];" vertex="1" connectable="0" parent="DeKQThP0z9D1mcQqg2c3-201">
          <mxGeometry x="-0.037" relative="1" as="geometry">
            <mxPoint as="offset" />
          </mxGeometry>
        </mxCell>
        <mxCell id="DeKQThP0z9D1mcQqg2c3-194" value="token是否&lt;br&gt;存在" style="rhombus;whiteSpace=wrap;html=1;rounded=1;shadow=0;strokeWidth=1;glass=0;" vertex="1" parent="WIyWlLk6GJQsqaUBKTNV-1">
          <mxGeometry x="275" y="2366" width="74" height="69" as="geometry" />
        </mxCell>
        <mxCell id="DeKQThP0z9D1mcQqg2c3-206" value="" style="edgeStyle=orthogonalEdgeStyle;rounded=0;orthogonalLoop=1;jettySize=auto;html=1;" edge="1" parent="WIyWlLk6GJQsqaUBKTNV-1" source="DeKQThP0z9D1mcQqg2c3-196" target="DeKQThP0z9D1mcQqg2c3-205">
          <mxGeometry relative="1" as="geometry" />
        </mxCell>
        <mxCell id="DeKQThP0z9D1mcQqg2c3-196" value="从Apollo获取身份密钥配置" style="rounded=0;whiteSpace=wrap;html=1;" vertex="1" parent="WIyWlLk6GJQsqaUBKTNV-1">
          <mxGeometry x="400" y="2379.25" width="105" height="42.5" as="geometry" />
        </mxCell>
        <mxCell id="DeKQThP0z9D1mcQqg2c3-208" style="edgeStyle=orthogonalEdgeStyle;rounded=0;orthogonalLoop=1;jettySize=auto;html=1;exitX=0.5;exitY=1;exitDx=0;exitDy=0;entryX=0.5;entryY=0;entryDx=0;entryDy=0;" edge="1" parent="WIyWlLk6GJQsqaUBKTNV-1" source="DeKQThP0z9D1mcQqg2c3-205" target="DeKQThP0z9D1mcQqg2c3-153">
          <mxGeometry relative="1" as="geometry" />
        </mxCell>
        <mxCell id="DeKQThP0z9D1mcQqg2c3-205" value="&lt;span style=&quot;font-size: 11px ; background-color: rgb(255 , 255 , 255)&quot;&gt;请求身份认证&lt;/span&gt;" style="whiteSpace=wrap;html=1;rounded=0;" vertex="1" parent="WIyWlLk6GJQsqaUBKTNV-1">
          <mxGeometry x="402.25" y="2490.25" width="99.5" height="33.5" as="geometry" />
        </mxCell>
        <mxCell id="DeKQThP0z9D1mcQqg2c3-259" value="" style="rounded=0;html=1;jettySize=auto;orthogonalLoop=1;fontSize=11;endArrow=block;endFill=0;endSize=8;strokeWidth=1;shadow=0;labelBackgroundColor=none;edgeStyle=orthogonalEdgeStyle;entryX=0;entryY=0.5;entryDx=0;entryDy=0;" edge="1" parent="WIyWlLk6GJQsqaUBKTNV-1" source="DeKQThP0z9D1mcQqg2c3-261" target="DeKQThP0z9D1mcQqg2c3-301">
          <mxGeometry relative="1" as="geometry">
            <mxPoint x="221" y="400" as="targetPoint" />
            <Array as="points" />
          </mxGeometry>
        </mxCell>
        <mxCell id="DeKQThP0z9D1mcQqg2c3-260" value="login" style="edgeLabel;html=1;align=center;verticalAlign=middle;resizable=0;points=[];" vertex="1" connectable="0" parent="DeKQThP0z9D1mcQqg2c3-259">
          <mxGeometry x="-0.0857" y="-3" relative="1" as="geometry">
            <mxPoint as="offset" />
          </mxGeometry>
        </mxCell>
        <mxCell id="DeKQThP0z9D1mcQqg2c3-261" value="client owner" style="rounded=1;whiteSpace=wrap;html=1;fontSize=12;glass=0;strokeWidth=1;shadow=0;" vertex="1" parent="WIyWlLk6GJQsqaUBKTNV-1">
          <mxGeometry x="34" y="380" width="120" height="40" as="geometry" />
        </mxCell>
        <mxCell id="DeKQThP0z9D1mcQqg2c3-262" style="edgeStyle=orthogonalEdgeStyle;rounded=0;orthogonalLoop=1;jettySize=auto;html=1;entryX=0.5;entryY=0;entryDx=0;entryDy=0;" edge="1" parent="WIyWlLk6GJQsqaUBKTNV-1" source="DeKQThP0z9D1mcQqg2c3-266" target="DeKQThP0z9D1mcQqg2c3-272">
          <mxGeometry relative="1" as="geometry">
            <mxPoint x="1187.5" y="619" as="targetPoint" />
          </mxGeometry>
        </mxCell>
        <mxCell id="DeKQThP0z9D1mcQqg2c3-263" value="不存在" style="edgeLabel;html=1;align=center;verticalAlign=middle;resizable=0;points=[];" vertex="1" connectable="0" parent="DeKQThP0z9D1mcQqg2c3-262">
          <mxGeometry x="-0.6845" y="-2" relative="1" as="geometry">
            <mxPoint x="10" y="2" as="offset" />
          </mxGeometry>
        </mxCell>
        <mxCell id="DeKQThP0z9D1mcQqg2c3-264" value="" style="edgeStyle=orthogonalEdgeStyle;rounded=0;orthogonalLoop=1;jettySize=auto;html=1;entryX=0;entryY=0.5;entryDx=0;entryDy=0;" edge="1" parent="WIyWlLk6GJQsqaUBKTNV-1" source="DeKQThP0z9D1mcQqg2c3-266" target="DeKQThP0z9D1mcQqg2c3-298">
          <mxGeometry relative="1" as="geometry" />
        </mxCell>
        <mxCell id="DeKQThP0z9D1mcQqg2c3-265" value="存在" style="edgeLabel;html=1;align=center;verticalAlign=middle;resizable=0;points=[];" vertex="1" connectable="0" parent="DeKQThP0z9D1mcQqg2c3-264">
          <mxGeometry x="-0.1429" y="-1" relative="1" as="geometry">
            <mxPoint as="offset" />
          </mxGeometry>
        </mxCell>
        <mxCell id="DeKQThP0z9D1mcQqg2c3-266" value="选取提供&lt;br&gt;资源的Server项目" style="rhombus;whiteSpace=wrap;html=1;shadow=0;fontFamily=Helvetica;fontSize=12;align=center;strokeWidth=1;spacing=6;spacingTop=-4;" vertex="1" parent="WIyWlLk6GJQsqaUBKTNV-1">
          <mxGeometry x="679" y="362" width="100" height="80" as="geometry" />
        </mxCell>
        <mxCell id="DeKQThP0z9D1mcQqg2c3-272" value="申请失败" style="rounded=1;whiteSpace=wrap;html=1;fontSize=12;glass=0;strokeWidth=1;shadow=0;" vertex="1" parent="WIyWlLk6GJQsqaUBKTNV-1">
          <mxGeometry x="1114" y="515" width="120" height="40" as="geometry" />
        </mxCell>
        <mxCell id="DeKQThP0z9D1mcQqg2c3-273" style="edgeStyle=orthogonalEdgeStyle;rounded=0;orthogonalLoop=1;jettySize=auto;html=1;exitX=1;exitY=0.5;exitDx=0;exitDy=0;entryX=0;entryY=0.5;entryDx=0;entryDy=0;" edge="1" parent="WIyWlLk6GJQsqaUBKTNV-1" source="DeKQThP0z9D1mcQqg2c3-277" target="DeKQThP0z9D1mcQqg2c3-266">
          <mxGeometry relative="1" as="geometry" />
        </mxCell>
        <mxCell id="DeKQThP0z9D1mcQqg2c3-274" value="存在" style="edgeLabel;html=1;align=center;verticalAlign=middle;resizable=0;points=[];" vertex="1" connectable="0" parent="DeKQThP0z9D1mcQqg2c3-273">
          <mxGeometry x="-0.1765" relative="1" as="geometry">
            <mxPoint as="offset" />
          </mxGeometry>
        </mxCell>
        <mxCell id="DeKQThP0z9D1mcQqg2c3-275" style="edgeStyle=orthogonalEdgeStyle;rounded=0;orthogonalLoop=1;jettySize=auto;html=1;entryX=0;entryY=0.5;entryDx=0;entryDy=0;exitX=0.5;exitY=1;exitDx=0;exitDy=0;" edge="1" parent="WIyWlLk6GJQsqaUBKTNV-1" source="DeKQThP0z9D1mcQqg2c3-277" target="DeKQThP0z9D1mcQqg2c3-272">
          <mxGeometry relative="1" as="geometry" />
        </mxCell>
        <mxCell id="DeKQThP0z9D1mcQqg2c3-276" value="不存在" style="edgeLabel;html=1;align=center;verticalAlign=middle;resizable=0;points=[];" vertex="1" connectable="0" parent="DeKQThP0z9D1mcQqg2c3-275">
          <mxGeometry x="-0.7101" y="-2" relative="1" as="geometry">
            <mxPoint y="-39" as="offset" />
          </mxGeometry>
        </mxCell>
        <mxCell id="DeKQThP0z9D1mcQqg2c3-277" value="选取需要申请&lt;br&gt;权限的项目" style="rhombus;whiteSpace=wrap;html=1;shadow=0;fontFamily=Helvetica;fontSize=12;align=center;strokeWidth=1;spacing=6;spacingTop=-4;" vertex="1" parent="WIyWlLk6GJQsqaUBKTNV-1">
          <mxGeometry x="525" y="362" width="100" height="80" as="geometry" />
        </mxCell>
        <mxCell id="DeKQThP0z9D1mcQqg2c3-281" value="" style="edgeStyle=orthogonalEdgeStyle;rounded=0;orthogonalLoop=1;jettySize=auto;html=1;exitX=1;exitY=0.5;exitDx=0;exitDy=0;" edge="1" parent="WIyWlLk6GJQsqaUBKTNV-1" source="DeKQThP0z9D1mcQqg2c3-282" target="DeKQThP0z9D1mcQqg2c3-287">
          <mxGeometry relative="1" as="geometry" />
        </mxCell>
        <mxCell id="DeKQThP0z9D1mcQqg2c3-282" value="输入申请原因&lt;br&gt;提交审核" style="whiteSpace=wrap;html=1;shadow=0;strokeWidth=1;spacing=6;spacingTop=-4;" vertex="1" parent="WIyWlLk6GJQsqaUBKTNV-1">
          <mxGeometry x="973" y="380" width="121" height="43" as="geometry" />
        </mxCell>
        <mxCell id="DeKQThP0z9D1mcQqg2c3-283" value="" style="edgeStyle=orthogonalEdgeStyle;rounded=0;orthogonalLoop=1;jettySize=auto;html=1;" edge="1" parent="WIyWlLk6GJQsqaUBKTNV-1" source="DeKQThP0z9D1mcQqg2c3-287" target="DeKQThP0z9D1mcQqg2c3-292">
          <mxGeometry relative="1" as="geometry" />
        </mxCell>
        <mxCell id="DeKQThP0z9D1mcQqg2c3-284" value="审核通过" style="edgeLabel;html=1;align=center;verticalAlign=middle;resizable=0;points=[];" vertex="1" connectable="0" parent="DeKQThP0z9D1mcQqg2c3-283">
          <mxGeometry x="-0.075" y="1" relative="1" as="geometry">
            <mxPoint as="offset" />
          </mxGeometry>
        </mxCell>
        <mxCell id="DeKQThP0z9D1mcQqg2c3-285" style="edgeStyle=orthogonalEdgeStyle;rounded=0;orthogonalLoop=1;jettySize=auto;html=1;exitX=0.5;exitY=1;exitDx=0;exitDy=0;entryX=0.5;entryY=0;entryDx=0;entryDy=0;" edge="1" parent="WIyWlLk6GJQsqaUBKTNV-1" source="DeKQThP0z9D1mcQqg2c3-287" target="DeKQThP0z9D1mcQqg2c3-272">
          <mxGeometry relative="1" as="geometry">
            <mxPoint x="305.5" y="772" as="targetPoint" />
          </mxGeometry>
        </mxCell>
        <mxCell id="DeKQThP0z9D1mcQqg2c3-286" value="审核不通过" style="edgeLabel;html=1;align=center;verticalAlign=middle;resizable=0;points=[];" vertex="1" connectable="0" parent="DeKQThP0z9D1mcQqg2c3-285">
          <mxGeometry x="-0.3444" relative="1" as="geometry">
            <mxPoint as="offset" />
          </mxGeometry>
        </mxCell>
        <mxCell id="DeKQThP0z9D1mcQqg2c3-287" value="Server项目Owner审核" style="rhombus;whiteSpace=wrap;html=1;shadow=0;strokeWidth=1;spacing=6;spacingTop=-4;" vertex="1" parent="WIyWlLk6GJQsqaUBKTNV-1">
          <mxGeometry x="1134" y="362" width="80" height="80" as="geometry" />
        </mxCell>
        <mxCell id="DeKQThP0z9D1mcQqg2c3-288" style="edgeStyle=orthogonalEdgeStyle;rounded=0;orthogonalLoop=1;jettySize=auto;html=1;entryX=1;entryY=0.5;entryDx=0;entryDy=0;exitX=0.5;exitY=1;exitDx=0;exitDy=0;" edge="1" parent="WIyWlLk6GJQsqaUBKTNV-1" source="DeKQThP0z9D1mcQqg2c3-292" target="DeKQThP0z9D1mcQqg2c3-272">
          <mxGeometry relative="1" as="geometry">
            <mxPoint x="290.5" y="787" as="targetPoint" />
          </mxGeometry>
        </mxCell>
        <mxCell id="DeKQThP0z9D1mcQqg2c3-289" value="审核不通过" style="edgeLabel;html=1;align=center;verticalAlign=middle;resizable=0;points=[];" vertex="1" connectable="0" parent="DeKQThP0z9D1mcQqg2c3-288">
          <mxGeometry x="-0.5053" relative="1" as="geometry">
            <mxPoint as="offset" />
          </mxGeometry>
        </mxCell>
        <mxCell id="DeKQThP0z9D1mcQqg2c3-290" value="" style="edgeStyle=orthogonalEdgeStyle;rounded=0;orthogonalLoop=1;jettySize=auto;html=1;" edge="1" parent="WIyWlLk6GJQsqaUBKTNV-1" source="DeKQThP0z9D1mcQqg2c3-292" target="DeKQThP0z9D1mcQqg2c3-293">
          <mxGeometry relative="1" as="geometry" />
        </mxCell>
        <mxCell id="DeKQThP0z9D1mcQqg2c3-291" value="审核通过" style="edgeLabel;html=1;align=center;verticalAlign=middle;resizable=0;points=[];" vertex="1" connectable="0" parent="DeKQThP0z9D1mcQqg2c3-290">
          <mxGeometry x="-0.0889" y="1" relative="1" as="geometry">
            <mxPoint as="offset" />
          </mxGeometry>
        </mxCell>
        <mxCell id="DeKQThP0z9D1mcQqg2c3-292" value="client owner TL审核" style="rhombus;whiteSpace=wrap;html=1;shadow=0;strokeWidth=1;spacing=6;spacingTop=-4;" vertex="1" parent="WIyWlLk6GJQsqaUBKTNV-1">
          <mxGeometry x="1286" y="362" width="80" height="80" as="geometry" />
        </mxCell>
        <mxCell id="DeKQThP0z9D1mcQqg2c3-293" value="申请资源成功" style="whiteSpace=wrap;html=1;shadow=0;strokeWidth=1;spacing=6;spacingTop=-4;" vertex="1" parent="WIyWlLk6GJQsqaUBKTNV-1">
          <mxGeometry x="1451" y="381" width="85.5" height="42" as="geometry" />
        </mxCell>
        <mxCell id="DeKQThP0z9D1mcQqg2c3-294" style="edgeStyle=orthogonalEdgeStyle;rounded=0;orthogonalLoop=1;jettySize=auto;html=1;entryX=0;entryY=0.5;entryDx=0;entryDy=0;exitX=0.5;exitY=1;exitDx=0;exitDy=0;" edge="1" parent="WIyWlLk6GJQsqaUBKTNV-1" source="DeKQThP0z9D1mcQqg2c3-298" target="DeKQThP0z9D1mcQqg2c3-272">
          <mxGeometry relative="1" as="geometry">
            <mxPoint x="229.5" y="757" as="targetPoint" />
          </mxGeometry>
        </mxCell>
        <mxCell id="DeKQThP0z9D1mcQqg2c3-295" value="不存在" style="edgeLabel;html=1;align=center;verticalAlign=middle;resizable=0;points=[];" vertex="1" connectable="0" parent="DeKQThP0z9D1mcQqg2c3-294">
          <mxGeometry x="-0.6585" y="-3" relative="1" as="geometry">
            <mxPoint x="-18" as="offset" />
          </mxGeometry>
        </mxCell>
        <mxCell id="DeKQThP0z9D1mcQqg2c3-296" style="edgeStyle=orthogonalEdgeStyle;rounded=0;orthogonalLoop=1;jettySize=auto;html=1;exitX=1;exitY=0.5;exitDx=0;exitDy=0;entryX=0;entryY=0.5;entryDx=0;entryDy=0;" edge="1" parent="WIyWlLk6GJQsqaUBKTNV-1" source="DeKQThP0z9D1mcQqg2c3-298" target="DeKQThP0z9D1mcQqg2c3-282">
          <mxGeometry relative="1" as="geometry" />
        </mxCell>
        <mxCell id="DeKQThP0z9D1mcQqg2c3-297" value="存在" style="edgeLabel;html=1;align=center;verticalAlign=middle;resizable=0;points=[];" vertex="1" connectable="0" parent="DeKQThP0z9D1mcQqg2c3-296">
          <mxGeometry x="-0.2642" y="2" relative="1" as="geometry">
            <mxPoint as="offset" />
          </mxGeometry>
        </mxCell>
        <mxCell id="DeKQThP0z9D1mcQqg2c3-298" value="选取Server项目存在的资源" style="rhombus;whiteSpace=wrap;html=1;shadow=0;strokeWidth=1;spacing=6;spacingTop=-4;" vertex="1" parent="WIyWlLk6GJQsqaUBKTNV-1">
          <mxGeometry x="836" y="362" width="80" height="80" as="geometry" />
        </mxCell>
        <mxCell id="DeKQThP0z9D1mcQqg2c3-299" value="" style="edgeStyle=orthogonalEdgeStyle;rounded=0;orthogonalLoop=1;jettySize=auto;html=1;" edge="1" parent="WIyWlLk6GJQsqaUBKTNV-1" source="DeKQThP0z9D1mcQqg2c3-301" target="DeKQThP0z9D1mcQqg2c3-303">
          <mxGeometry relative="1" as="geometry" />
        </mxCell>
        <mxCell id="DeKQThP0z9D1mcQqg2c3-301" value="&lt;span&gt;auth center&lt;/span&gt;" style="whiteSpace=wrap;html=1;shadow=0;strokeWidth=1;spacing=6;spacingTop=-4;" vertex="1" parent="WIyWlLk6GJQsqaUBKTNV-1">
          <mxGeometry x="233" y="380" width="109" height="44" as="geometry" />
        </mxCell>
        <mxCell id="DeKQThP0z9D1mcQqg2c3-308" style="edgeStyle=orthogonalEdgeStyle;rounded=0;orthogonalLoop=1;jettySize=auto;html=1;entryX=0;entryY=0.5;entryDx=0;entryDy=0;fontSize=16;" edge="1" parent="WIyWlLk6GJQsqaUBKTNV-1" source="DeKQThP0z9D1mcQqg2c3-303" target="DeKQThP0z9D1mcQqg2c3-277">
          <mxGeometry relative="1" as="geometry" />
        </mxCell>
        <mxCell id="DeKQThP0z9D1mcQqg2c3-303" value="进入资源列表" style="whiteSpace=wrap;html=1;shadow=0;strokeWidth=1;spacing=6;spacingTop=-4;" vertex="1" parent="WIyWlLk6GJQsqaUBKTNV-1">
          <mxGeometry x="382" y="383.5" width="98.5" height="37" as="geometry" />
        </mxCell>
        <mxCell id="DeKQThP0z9D1mcQqg2c3-307" value="client owner录入项目&amp;amp;创建身份密钥" style="text;html=1;strokeColor=none;fillColor=none;align=center;verticalAlign=middle;whiteSpace=wrap;rounded=0;fontStyle=1;fontSize=16;" vertex="1" parent="WIyWlLk6GJQsqaUBKTNV-1">
          <mxGeometry x="34" y="24" width="282" height="33" as="geometry" />
        </mxCell>
        <mxCell id="DeKQThP0z9D1mcQqg2c3-309" value="client owner申请资源权限" style="text;html=1;strokeColor=none;fillColor=none;align=center;verticalAlign=middle;whiteSpace=wrap;rounded=0;fontStyle=1;fontSize=16;" vertex="1" parent="WIyWlLk6GJQsqaUBKTNV-1">
          <mxGeometry x="-10" y="329" width="282" height="33" as="geometry" />
        </mxCell>
      </root>
    </mxGraphModel>
  </diagram>
</mxfile>
